<svg id="visual" viewBox="0 0 900 600" width="900" height="600" xmlns="http://www.w3.org/2000/svg" xmlns:xlink="http://www.w3.org/1999/xlink" version="1.1"><rect x="0" y="0" width="900" height="600" fill="#001220"></rect><path d="M0 478L16.7 481.3C33.3 484.7 66.7 491.3 100 487.7C133.3 484 166.7 470 200 465.2C233.3 460.3 266.7 464.7 300 472.5C333.3 480.3 366.7 491.7 400 496.3C433.3 501 466.7 499 500 493.5C533.3 488 566.7 479 600 473.3C633.3 467.7 666.7 465.3 700 467.8C733.3 470.3 766.7 477.7 800 480.2C833.3 482.7 866.7 480.3 883.3 479.2L900 478L900 601L883.3 601C866.7 601 833.3 601 800 601C766.7 601 733.3 601 700 601C666.7 601 633.3 601 600 601C566.7 601 533.3 601 500 601C466.7 601 433.3 601 400 601C366.7 601 333.3 601 300 601C266.7 601 233.3 601 200 601C166.7 601 133.3 601 100 601C66.7 601 33.3 601 16.7 601L0 601Z" fill="#d5a110"></path><path d="M0 489L16.7 494.3C33.3 499.7 66.7 510.3 100 514.5C133.3 518.7 166.7 516.3 200 513.5C233.3 510.7 266.7 507.3 300 507.8C333.3 508.3 366.7 512.7 400 509.5C433.3 506.3 466.7 495.7 500 493.8C533.3 492 566.7 499 600 499C633.3 499 666.7 492 700 489.8C733.3 487.7 766.7 490.3 800 492.7C833.3 495 866.7 497 883.3 498L900 499L900 601L883.3 601C866.7 601 833.3 601 800 601C766.7 601 733.3 601 700 601C666.7 601 633.3 601 600 601C566.7 601 533.3 601 500 601C466.7 601 433.3 601 400 601C366.7 601 333.3 601 300 601C266.7 601 233.3 601 200 601C166.7 601 133.3 601 100 601C66.7 601 33.3 601 16.7 601L0 601Z" fill="#c67c00"></path><path d="M0 528L16.7 529.8C33.3 531.7 66.7 535.3 100 537C133.3 538.7 166.7 538.3 200 537C233.3 535.7 266.7 533.3 300 534C333.3 534.7 366.7 538.3 400 534.7C433.3 531 466.7 520 500 519.2C533.3 518.3 566.7 527.7 600 531.7C633.3 535.7 666.7 534.3 700 532.7C733.3 531 766.7 529 800 526C833.3 523 866.7 519 883.3 517L900 515L900 601L883.3 601C866.7 601 833.3 601 800 601C766.7 601 733.3 601 700 601C666.7 601 633.3 601 600 601C566.7 601 533.3 601 500 601C466.7 601 433.3 601 400 601C366.7 601 333.3 601 300 601C266.7 601 233.3 601 200 601C166.7 601 133.3 601 100 601C66.7 601 33.3 601 16.7 601L0 601Z" fill="#b35800"></path><path d="M0 551L16.7 550.7C33.3 550.3 66.7 549.7 100 548.8C133.3 548 166.7 547 200 548.7C233.3 550.3 266.7 554.7 300 555.3C333.3 556 366.7 553 400 553.3C433.3 553.7 466.7 557.3 500 557.2C533.3 557 566.7 553 600 549.2C633.3 545.3 666.7 541.7 700 539.2C733.3 536.7 766.7 535.3 800 537.7C833.3 540 866.7 546 883.3 549L900 552L900 601L883.3 601C866.7 601 833.3 601 800 601C766.7 601 733.3 601 700 601C666.7 601 633.3 601 600 601C566.7 601 533.3 601 500 601C466.7 601 433.3 601 400 601C366.7 601 333.3 601 300 601C266.7 601 233.3 601 200 601C166.7 601 133.3 601 100 601C66.7 601 33.3 601 16.7 601L0 601Z" fill="#9c3401"></path><path d="M0 561L16.7 561.3C33.3 561.7 66.7 562.3 100 563.3C133.3 564.3 166.7 565.7 200 568C233.3 570.3 266.7 573.7 300 575.3C333.3 577 366.7 577 400 577.3C433.3 577.7 466.7 578.3 500 576C533.3 573.7 566.7 568.3 600 566.3C633.3 564.3 666.7 565.7 700 565.5C733.3 565.3 766.7 563.7 800 563.5C833.3 563.3 866.7 564.7 883.3 565.3L900 566L900 601L883.3 601C866.7 601 833.3 601 800 601C766.7 601 733.3 601 700 601C666.7 601 633.3 601 600 601C566.7 601 533.3 601 500 601C466.7 601 433.3 601 400 601C366.7 601 333.3 601 300 601C266.7 601 233.3 601 200 601C166.7 601 133.3 601 100 601C66.7 601 33.3 601 16.7 601L0 601Z" fill="#830000"></path></svg>