<svg width="29" height="20" viewBox="0 0 29 20" fill="none" xmlns="http://www.w3.org/2000/svg">
<path d="M7.83734 1.37471C8.52219 0.70698 9.44085 0.333296 10.3973 0.333374H24.1267C24.924 0.333374 25.852 0.554707 26.6107 1.02537C27.3827 1.50271 28.0907 2.32404 28.0907 3.50004V16.5C28.0907 17.676 27.3827 18.496 26.6107 18.9747C25.86 19.4245 25.0018 19.6636 24.1267 19.6667H10.3973C9.44085 19.6668 8.52219 19.2931 7.83734 18.6254L0.704006 11.6707C0.481051 11.4533 0.303863 11.1935 0.182881 10.9066C0.0618999 10.6197 -0.000427246 10.3114 -0.000427246 10C-0.000427246 9.68865 0.0618999 9.38041 0.182881 9.09349C0.303863 8.80656 0.481051 8.54675 0.704006 8.32937L7.83734 1.37471ZM16.7067 6.62671C16.6151 6.52846 16.5047 6.44966 16.3821 6.395C16.2594 6.34034 16.127 6.31095 15.9927 6.30859C15.8584 6.30622 15.7251 6.33092 15.6005 6.38121C15.476 6.43151 15.3629 6.50637 15.268 6.60132C15.173 6.69628 15.0981 6.80939 15.0478 6.93391C14.9975 7.05843 14.9728 7.1918 14.9752 7.32607C14.9776 7.46034 15.007 7.59276 15.0616 7.71543C15.1163 7.83809 15.1951 7.94849 15.2933 8.04004L17.2533 10L15.2933 11.96C15.1951 12.0516 15.1163 12.162 15.0616 12.2847C15.007 12.4073 14.9776 12.5397 14.9752 12.674C14.9728 12.8083 14.9975 12.9417 15.0478 13.0662C15.0981 13.1907 15.173 13.3038 15.268 13.3988C15.3629 13.4937 15.476 13.5686 15.6005 13.6189C15.7251 13.6692 15.8584 13.6939 15.9927 13.6915C16.127 13.6891 16.2594 13.6597 16.3821 13.6051C16.5047 13.5504 16.6151 13.4716 16.7067 13.3734L18.6667 11.4134L20.6267 13.3734C20.7182 13.4716 20.8286 13.5504 20.9513 13.6051C21.074 13.6597 21.2064 13.6891 21.3406 13.6915C21.4749 13.6939 21.6083 13.6692 21.7328 13.6189C21.8573 13.5686 21.9704 13.4937 22.0654 13.3988C22.1603 13.3038 22.2352 13.1907 22.2855 13.0662C22.3358 12.9417 22.3605 12.8083 22.3581 12.674C22.3558 12.5397 22.3264 12.4073 22.2717 12.2847C22.2171 12.162 22.1383 12.0516 22.04 11.96L20.08 10L22.04 8.04004C22.1383 7.94849 22.2171 7.83809 22.2717 7.71543C22.3264 7.59276 22.3558 7.46034 22.3581 7.32607C22.3605 7.1918 22.3358 7.05843 22.2855 6.93391C22.2352 6.80939 22.1603 6.69628 22.0654 6.60132C21.9704 6.50637 21.8573 6.43151 21.7328 6.38121C21.6083 6.33092 21.4749 6.30622 21.3406 6.30859C21.2064 6.31095 21.074 6.34034 20.9513 6.395C20.8286 6.44966 20.7182 6.52846 20.6267 6.62671L18.6667 8.58671L16.7067 6.62671Z" fill="black"/>
</svg>
