<?xml version="1.0" encoding="UTF-8"?>
<svg version="1.1" xmlns="http://www.w3.org/2000/svg" width="360" height="360">
<path d="M0 0 C12.09509931 -0.75749595 22.25249349 3.08846083 33.49414062 7.18847656 C39.25714229 9.27437717 45.05893236 11.24347665 50.8671875 13.19921875 C52.01026367 13.5854541 53.15333984 13.97168945 54.33105469 14.36962891 C61.45843029 16.7339887 68.38589406 18.49770938 75.78125 19.80078125 C84.6423482 21.51804834 91.36922634 25.01809126 96.8046875 32.38671875 C99.6463196 37.75857121 100.20304548 41.91478864 99.9921875 47.82421875 C99.97865234 48.55576172 99.96511719 49.28730469 99.95117188 50.04101562 C99.91622624 51.82324297 99.86243555 53.60508448 99.8046875 55.38671875 C100.4028125 55.07734375 101.0009375 54.76796875 101.6171875 54.44921875 C104.04201613 53.27144484 106.08193794 52.38671875 108.8046875 52.38671875 C108.8046875 51.72671875 108.8046875 51.06671875 108.8046875 50.38671875 C109.64773437 49.97679687 110.49078125 49.566875 111.359375 49.14453125 C112.45507812 48.60570312 113.55078125 48.066875 114.6796875 47.51171875 C115.77023438 46.97804687 116.86078125 46.444375 117.984375 45.89453125 C120.84351297 44.54135938 120.84351297 44.54135938 122.8046875 42.38671875 C124.47135417 41.72005208 126.13802083 41.05338542 127.8046875 40.38671875 C128.7946875 39.39671875 128.7946875 39.39671875 129.8046875 38.38671875 C130.7946875 38.38671875 131.7846875 38.38671875 132.8046875 38.38671875 C132.8046875 37.72671875 132.8046875 37.06671875 132.8046875 36.38671875 C140.8046875 32.38671875 140.8046875 32.38671875 142.9453125 31.37890625 C144.97220869 30.41316623 144.97220869 30.41316623 146.8046875 28.38671875 C152.34314904 25.38671875 152.34314904 25.38671875 154.8046875 25.38671875 C155.1346875 24.72671875 155.4646875 24.06671875 155.8046875 23.38671875 C157.13802083 23.05338542 158.47135417 22.72005208 159.8046875 22.38671875 C160.1346875 21.72671875 160.4646875 21.06671875 160.8046875 20.38671875 C162.13802083 20.05338542 163.47135417 19.72005208 164.8046875 19.38671875 C165.1346875 18.72671875 165.4646875 18.06671875 165.8046875 17.38671875 C167.58203125 16.31640625 167.58203125 16.31640625 169.7421875 15.26171875 C170.80759766 14.73191406 170.80759766 14.73191406 171.89453125 14.19140625 C173.8046875 13.38671875 173.8046875 13.38671875 175.8046875 13.38671875 C176.1346875 12.72671875 176.4646875 12.06671875 176.8046875 11.38671875 C187.28458579 6.98676145 199.34255371 3.63470676 210.53125 7.2734375 C216.96971778 10.51420473 221.7682776 15.54561023 224.6796875 22.13671875 C227.18199549 29.8983687 226.50410327 37.69588831 223.2109375 45.09375 C220.79311415 49.0361453 217.49221767 51.67148657 213.8046875 54.38671875 C213.17820312 54.88171875 212.55171875 55.37671875 211.90625 55.88671875 C208.55681499 58.27739355 204.90089859 60.06927779 201.265625 61.984375 C198.72892161 63.28630303 198.72892161 63.28630303 196.8046875 65.38671875 C195.11469869 66.35689751 193.40300519 67.28955663 191.6796875 68.19921875 C183.21811349 72.54648698 183.21811349 72.54648698 175.8046875 78.38671875 C174.63337447 79.06146516 173.44218363 79.70191156 172.2421875 80.32421875 C167.470027 82.91459989 162.96471275 85.84652097 158.4296875 88.82421875 C152.84288468 92.48824342 147.23149452 95.87495187 141.30859375 98.9765625 C137.64407593 101.04035491 134.28354237 103.47937905 130.8984375 105.96875 C128.8046875 107.38671875 128.8046875 107.38671875 125.8046875 108.38671875 C125.1446875 109.04671875 124.4846875 109.70671875 123.8046875 110.38671875 C122.8146875 110.71671875 121.8246875 111.04671875 120.8046875 111.38671875 C120.1446875 112.04671875 119.4846875 112.70671875 118.8046875 113.38671875 C117.47501701 114.06066133 116.14074556 114.72552961 114.8046875 115.38671875 C111.99084886 117.11670843 109.19261347 118.86692667 106.40625 120.640625 C102.02054716 123.38671875 102.02054716 123.38671875 99.8046875 123.38671875 C99.4746875 124.37671875 99.1446875 125.36671875 98.8046875 126.38671875 C96.3671875 127.38671875 96.3671875 127.38671875 92.8046875 128.38671875 C92.12535156 128.64710938 91.44601563 128.9075 90.74609375 129.17578125 C77.48215641 133.9624298 64.06455444 131.2764512 50.9296875 127.57421875 C49.44537765 127.17234806 47.96049577 126.77258523 46.47509766 126.37475586 C43.29138788 125.51969267 40.11069442 124.65443519 36.93164062 123.78222656 C28.6295138 121.51219547 20.29776694 119.35355932 11.97015381 117.17935181 C9.23062196 116.46254589 6.49234158 115.74114378 3.75439453 115.01831055 C2.4605484 114.6776506 2.4605484 114.6776506 1.14056396 114.33010864 C-0.46194068 113.90816935 -2.06414231 113.48507651 -3.66595459 113.06051636 C-7.43161954 112.07149443 -11.20529096 111.12583831 -14.99755859 110.24389648 C-15.70673431 110.07889145 -16.41591003 109.91388641 -17.14657593 109.74388123 C-19.50546769 109.27222357 -19.50546769 109.27222357 -23.1953125 109.38671875 C-23.6903125 110.87171875 -23.6903125 110.87171875 -24.1953125 112.38671875 C-26.2578125 113.07421875 -26.2578125 113.07421875 -28.1953125 113.38671875 C-27.78095667 116.80515433 -27.03738501 118.63078851 -25.1328125 121.57421875 C-22.46600698 126.00596466 -22.60030028 130.35461536 -23.1953125 135.38671875 C-24.1953125 138.51171875 -24.1953125 138.51171875 -25.1953125 140.38671875 C-25.8553125 140.38671875 -26.5153125 140.38671875 -27.1953125 140.38671875 C-27.5253125 141.37671875 -27.8553125 142.36671875 -28.1953125 143.38671875 C-30.51234378 144.79939854 -32.77661696 146.05004978 -35.1953125 147.26171875 C-36.57085427 147.96639137 -37.94585671 148.67211779 -39.3203125 149.37890625 C-39.98804687 149.72018555 -40.65578125 150.06146484 -41.34375 150.41308594 C-43.68567706 151.64457395 -45.93457334 153.01300572 -48.1953125 154.38671875 C-51.98576462 156.50281702 -54.81263049 156.97669517 -59.1953125 156.38671875 C-63.95380338 154.99398971 -68.77581809 152.51596036 -71.5703125 148.32421875 C-72.1953125 146.38671875 -72.1953125 146.38671875 -72.1953125 143.38671875 C-72.8553125 143.05671875 -73.5153125 142.72671875 -74.1953125 142.38671875 C-75.29634859 140.60965791 -76.32934554 138.7899279 -77.3203125 136.94921875 C-77.85914063 135.96050781 -78.39796875 134.97179687 -78.953125 133.953125 C-80.1953125 131.38671875 -80.1953125 131.38671875 -80.1953125 129.38671875 C-80.8553125 129.05671875 -81.5153125 128.72671875 -82.1953125 128.38671875 C-85.1953125 122.96364183 -85.1953125 122.96364183 -85.1953125 120.38671875 C-86.1853125 119.89171875 -86.1853125 119.89171875 -87.1953125 119.38671875 C-88.13292371 117.77573222 -88.99922651 116.1226016 -89.8203125 114.44921875 C-90.26632813 113.55332031 -90.71234375 112.65742188 -91.171875 111.734375 C-92.1953125 109.38671875 -92.1953125 109.38671875 -92.1953125 107.38671875 C-93.6803125 106.89171875 -93.6803125 106.89171875 -95.1953125 106.38671875 C-95.7578125 104.44921875 -95.7578125 104.44921875 -96.1953125 102.38671875 C-96.8553125 101.72671875 -97.5153125 101.06671875 -98.1953125 100.38671875 C-99.00539874 98.07521612 -99.65608757 95.74109351 -100.31640625 93.3828125 C-100.60644531 92.72410156 -100.89648438 92.06539063 -101.1953125 91.38671875 C-102.6803125 90.89171875 -102.6803125 90.89171875 -104.1953125 90.38671875 C-105.38753993 88.42305004 -106.1693617 86.45852044 -106.94921875 84.30078125 C-108.7004113 80.20551591 -110.88623426 76.38957195 -113.0703125 72.51171875 C-113.50472656 71.73441406 -113.93914062 70.95710938 -114.38671875 70.15625 C-115.24436955 68.62381088 -116.10466315 67.09284742 -116.96777344 65.56347656 C-117.76251268 64.15418955 -118.552545 62.74223343 -119.33691406 61.32714844 C-120.79053809 58.72571378 -122.07683379 56.50519746 -124.1953125 54.38671875 C-124.97442267 48.19431061 -124.76137929 42.66978066 -121.1953125 37.38671875 C-118.93101954 34.50489135 -116.54682822 33.72732504 -113.1953125 32.38671875 C-112.7209375 31.89171875 -112.2465625 31.39671875 -111.7578125 30.88671875 C-110.1953125 29.38671875 -110.1953125 29.38671875 -107.5078125 28.51171875 C-104.52867485 27.49993615 -102.93626106 26.55318882 -100.4453125 24.76171875 C-95.75679822 21.72586084 -91.63560311 21.60691318 -86.1953125 22.38671875 C-79.90911928 23.98908173 -77.67363082 28.81575896 -74.515625 34.0859375 C-74.07992187 34.84519531 -73.64421875 35.60445312 -73.1953125 36.38671875 C-66.21335675 32.95895778 -59.3065613 29.54820889 -52.8828125 25.13671875 C-50.1953125 23.38671875 -50.1953125 23.38671875 -48.1953125 23.38671875 C-47.8653125 22.72671875 -47.5353125 22.06671875 -47.1953125 21.38671875 C-45.41332748 20.41205808 -43.59326644 19.50651348 -41.7578125 18.63671875 C-37.82666756 16.724395 -34.03441685 14.7543118 -30.3203125 12.44921875 C-20.69915302 6.56789707 -11.25663469 1.36235554 0 0 Z M-23.1953125 22.38671875 C-23.1953125 23.04671875 -23.1953125 23.70671875 -23.1953125 24.38671875 C-23.90703613 24.48944092 -24.61875977 24.59216309 -25.35205078 24.69799805 C-28.56464025 25.47618068 -30.84863406 26.71815001 -33.6875 28.40625 C-34.72261719 29.01662109 -35.75773437 29.62699219 -36.82421875 30.25585938 C-37.89542969 30.89716797 -38.96664062 31.53847656 -40.0703125 32.19921875 C-42.19261839 33.45588108 -44.31501199 34.7123953 -46.4375 35.96875 C-47.43676514 36.56349121 -48.43603027 37.15823242 -49.46557617 37.77099609 C-51.69191571 39.08875972 -53.92605781 40.38687418 -56.17578125 41.6640625 C-58.69994264 43.104108 -61.17634065 44.58526285 -63.6328125 46.13671875 C-64.31214844 46.5646875 -64.99148437 46.99265625 -65.69140625 47.43359375 C-66.18769531 47.748125 -66.68398437 48.06265625 -67.1953125 48.38671875 C-66.75960937 49.11375 -66.32390625 49.84078125 -65.875 50.58984375 C-62.89987768 55.61277754 -60.02863185 60.61933504 -57.5078125 65.88671875 C-54.2778696 72.5037369 -50.45592486 78.73919993 -46.59692383 85.00585938 C-43.14000131 90.65762652 -40.06652483 96.41618122 -37.1953125 102.38671875 C-31.99150304 101.01729521 -28.30883268 98.50986193 -24.05078125 95.3359375 C-20.43207507 94.13300234 -18.61077762 95.16604654 -15.12312317 96.40141296 C-11.64416259 97.57219905 -8.12604746 98.56301051 -4.58691406 99.53149414 C-3.52658006 99.82216955 -3.52658006 99.82216955 -2.44482517 100.11871719 C-0.1591867 100.74304518 2.12733743 101.36403946 4.4140625 101.984375 C6.0291604 102.42367911 7.64425225 102.86300549 9.25933838 103.30235291 C12.63427226 104.2195815 16.00983013 105.1344744 19.38574219 106.0480957 C23.67836736 107.21031819 27.9684954 108.38148903 32.25808334 109.55486393 C35.59082919 110.4648254 38.9253037 111.36832241 42.26026154 112.27013969 C43.84107892 112.69874194 45.42127526 113.12964254 47.00078583 113.56303596 C64.06438236 118.2396633 78.21608037 121.94031052 94.640625 113.21875 C99.29213056 110.52547085 103.79940975 107.6369222 108.2890625 104.68359375 C111.64909317 102.47451281 115.06124399 100.35930981 118.4921875 98.26171875 C122.51771609 95.79950223 126.51846253 93.30668867 130.4921875 90.76171875 C134.66985769 88.09114459 138.89256691 85.51358599 143.15234375 82.9765625 C149.47312903 79.18781491 155.72769908 75.28865161 161.99609375 71.4140625 C167.67979058 67.90621035 173.38260528 64.4354169 179.1171875 61.01171875 C184.58165084 57.74246716 190.01916502 54.43204444 195.4296875 51.07421875 C196.09266846 50.66574707 196.75564941 50.25727539 197.4387207 49.83642578 C200.32356394 48.03741935 202.98976578 46.23707557 205.640625 44.09375 C207.8046875 42.38671875 207.8046875 42.38671875 209.8046875 42.38671875 C213.18990793 38.48069518 213.25867363 34.69792163 213.08984375 29.7578125 C212.57721929 25.49530498 210.90728349 23.38594637 207.8046875 20.57421875 C200.37151931 17.63192301 192.97146646 19.13953871 185.765625 22.05078125 C177.89763038 25.60072077 170.28747828 29.40183141 162.99389648 34.02807617 C158.8775391 36.5827242 154.64535101 38.93839759 150.4296875 41.32421875 C144.34547192 44.77105141 138.30219123 48.26893792 132.31396484 51.88012695 C128.00307609 54.46842181 123.65880549 56.99700659 119.3046875 59.51171875 C118.43199219 60.02347656 117.55929688 60.53523438 116.66015625 61.0625 C102.20272284 69.39426533 90.14200752 71.79751543 73.7421875 68.94921875 C72.78280273 68.78454102 71.82341797 68.61986328 70.83496094 68.45019531 C60.12969166 66.47171913 49.71609921 63.44945894 39.28100586 60.38500977 C38.27126961 60.08963066 38.27126961 60.08963066 37.24113464 59.7882843 C35.39853559 59.24700256 33.55808087 58.6984366 31.71777344 58.14941406 C28.82287006 57.2600788 28.82287006 57.2600788 25.8046875 57.38671875 C24.45779744 49.91760117 24.45779744 49.91760117 25.9609375 47.6171875 C28.49363778 45.92693202 29.99053455 46.18149459 32.9921875 46.51171875 C33.89324219 46.59679687 34.79429687 46.681875 35.72265625 46.76953125 C38.82556077 47.39089869 41.61625256 48.39796071 44.55786133 49.54882812 C55.45089923 53.61108023 69.05569163 58.61239374 80.8046875 56.38671875 C81.7946875 55.72671875 82.7846875 55.06671875 83.8046875 54.38671875 C83.8046875 53.72671875 83.8046875 53.06671875 83.8046875 52.38671875 C84.4646875 52.38671875 85.1246875 52.38671875 85.8046875 52.38671875 C87.84753412 48.30102551 87.9978729 45.79232637 86.8046875 41.38671875 C85.86664968 38.60081765 85.86664968 38.60081765 83.8046875 36.38671875 C78.67519622 34.18092171 73.57571888 32.78554897 68.1418457 31.54833984 C55.6575951 28.6997822 43.75234342 24.75141953 31.75366211 20.34570312 C9.67065973 12.24269501 -2.37006197 11.14231572 -23.1953125 22.38671875 Z M-100.4453125 39.38671875 C-101.095 39.76828125 -101.7446875 40.14984375 -102.4140625 40.54296875 C-104.01238351 41.48315758 -105.60447703 42.43391889 -107.1953125 43.38671875 C-107.1953125 44.04671875 -107.1953125 44.70671875 -107.1953125 45.38671875 C-108.5153125 45.38671875 -109.8353125 45.38671875 -111.1953125 45.38671875 C-111.87466769 50.59848842 -109.54699129 53.93155912 -107.0078125 58.26171875 C-106.56074951 59.04417969 -106.11368652 59.82664062 -105.65307617 60.6328125 C-104.68158958 62.33270621 -103.70591399 64.0302112 -102.7265625 65.72558594 C-101.18895378 68.39776945 -99.67318345 71.08116771 -98.1640625 73.76953125 C-91.79659279 85.10918854 -85.3248496 96.3867011 -78.81103516 107.64282227 C-73.89234796 116.15170337 -69.0415769 124.69743631 -64.23046875 133.26757812 C-63.72773437 134.16154297 -63.225 135.05550781 -62.70703125 135.9765625 C-62.26834717 136.75894287 -61.82966309 137.54132324 -61.37768555 138.34741211 C-60.3811997 140.06610843 -59.2973248 141.73370031 -58.1953125 143.38671875 C-49.98383313 141.70709797 -43.09177427 136.98435993 -36.1953125 132.38671875 C-35.7003125 130.90171875 -35.7003125 130.90171875 -35.1953125 129.38671875 C-36.05473826 127.73662129 -36.93596241 126.09525581 -37.90625 124.5078125 C-39.3127625 122.19346011 -40.59906281 119.83383759 -41.8828125 117.44921875 C-45.21539397 111.31693052 -48.64263732 105.23955363 -52.0703125 99.16015625 C-54.46452195 94.91298152 -56.83661316 90.65371253 -59.1953125 86.38671875 C-59.8553125 86.38671875 -60.5153125 86.38671875 -61.1953125 86.38671875 C-61.28167969 85.70351563 -61.36804688 85.0203125 -61.45703125 84.31640625 C-62.37662179 80.66723745 -64.09580665 77.71111873 -66.0078125 74.51171875 C-66.70182292 73.32682292 -67.39583333 72.14192708 -68.08984375 70.95703125 C-68.61300171 70.07217041 -68.61300171 70.07217041 -69.14672852 69.16943359 C-70.85887717 66.25858156 -72.52425452 63.32127971 -74.1953125 60.38671875 C-74.84371094 59.25492188 -75.49210937 58.123125 -76.16015625 56.95703125 C-76.81113281 55.82007813 -77.46210937 54.683125 -78.1328125 53.51171875 C-78.65222412 52.60534668 -78.65222412 52.60534668 -79.18212891 51.68066406 C-81.57191371 47.50215817 -83.90824747 43.29832223 -86.1875 39.05859375 C-87.20861797 37.2130549 -87.20861797 37.2130549 -89.1953125 35.38671875 C-93.91790458 35.38671875 -96.53753931 37.03570073 -100.4453125 39.38671875 Z " fill="#020202" transform="translate(129.1953125,190.61328125)"/>
<path d="M0 0 C0.91910156 0.00257812 1.83820313 0.00515625 2.78515625 0.0078125 C3.68105469 0.00523438 4.57695312 0.00265625 5.5 0 C14.5317882 0.35832065 22.33183967 1.91029607 30.91015625 4.8203125 C31.93431641 5.14708984 32.95847656 5.47386719 34.01367188 5.81054688 C40.74489793 8.0600237 46.12115632 10.98129498 51.84765625 15.1328125 C52.93433594 15.82246094 54.02101563 16.51210938 55.140625 17.22265625 C61.04739161 20.99310241 65.59912098 24.58690572 69.84765625 30.1328125 C70.54890625 30.8134375 71.25015625 31.4940625 71.97265625 32.1953125 C74.31126054 34.61187027 75.98588723 37.34015896 77.84765625 40.1328125 C78.50765625 40.4628125 79.16765625 40.7928125 79.84765625 41.1328125 C94.79736616 64.32287455 99.50957367 91.32045971 93.8359375 118.21484375 C92.44563849 124.08932629 90.2504131 129.60725439 87.84765625 135.1328125 C87.54472656 135.89851562 87.24179687 136.66421875 86.9296875 137.453125 C85.1172517 141.99801478 85.1172517 141.99801478 82.84765625 143.1328125 C82.15805661 144.79012193 81.49478304 146.45846214 80.84765625 148.1328125 C77.79542956 153.36008635 74.44752485 158.17181454 69.84765625 162.1328125 C69.18765625 162.1328125 68.52765625 162.1328125 67.84765625 162.1328125 C67.51765625 163.1228125 67.18765625 164.1128125 66.84765625 165.1328125 C65.03515625 166.88671875 65.03515625 166.88671875 62.84765625 168.6953125 C59.89806446 171.05491577 59.89806446 171.05491577 57.84765625 174.1328125 C55.42872188 175.48063202 53.02131426 176.73363581 50.53515625 177.9453125 C49.81038086 178.30133545 49.08560547 178.6573584 48.33886719 179.02416992 C33.7978478 186.10064969 19.88867886 190.89148547 3.59765625 191.5078125 C2.39625 191.55679688 1.19484375 191.60578125 -0.04296875 191.65625 C-3.15234375 191.1328125 -3.15234375 191.1328125 -4.82287025 189.06266785 C-6.47622208 185.41905878 -6.52985697 182.73228395 -6.53329468 178.73168945 C-6.53797465 177.99590573 -6.54265462 177.26012201 -6.54747641 176.50204182 C-6.55942313 174.04154134 -6.54997069 171.58159817 -6.54052734 169.12109375 C-6.5445932 167.35508906 -6.54993515 165.58908692 -6.55645752 163.8230896 C-6.5701353 159.02975097 -6.56483055 154.23660603 -6.55532026 149.44326401 C-6.54772609 144.42742134 -6.55476861 139.41159527 -6.55947876 134.39575195 C-6.56493701 125.97246319 -6.55774286 117.54925334 -6.54345703 109.12597656 C-6.5271304 99.38690906 -6.53241885 89.64802996 -6.54893625 79.90896702 C-6.56254912 71.54790668 -6.56447174 63.18690307 -6.55662024 54.82583523 C-6.55194264 49.83182626 -6.5513213 44.83790587 -6.56122971 39.84390259 C-6.56989417 35.14889326 -6.56388694 30.4541269 -6.54654694 25.75914383 C-6.54257932 24.03580758 -6.54372085 22.31245089 -6.55033493 20.58912277 C-6.55852977 18.23711741 -6.54825435 15.88589123 -6.53329468 13.53393555 C-6.53159806 11.55951729 -6.53159806 11.55951729 -6.52986717 9.54521179 C-6.07405908 5.42520461 -4.71867208 0.29117033 0 0 Z M7.84765625 13.1328125 C6.64204441 14.11549109 6.64204441 14.11549109 6.75 15.98046875 C6.76160156 16.71136719 6.77320313 17.44226563 6.78515625 18.1953125 C6.80578125 19.4946875 6.82640625 20.7940625 6.84765625 22.1328125 C7.86085937 22.32617188 8.8740625 22.51953125 9.91796875 22.71875 C11.26957193 22.98156173 12.62113217 23.24459433 13.97265625 23.5078125 C14.97039062 23.69730469 14.97039062 23.69730469 15.98828125 23.890625 C25.90087885 25.83427159 36.21165725 29.32232691 43.84765625 36.1328125 C45.94654181 37.69186953 48.05957657 39.23018326 50.17578125 40.765625 C51.84765625 42.1328125 51.84765625 42.1328125 52.84765625 44.1328125 C53.50765625 44.1328125 54.16765625 44.1328125 54.84765625 44.1328125 C55.13640625 44.7309375 55.42515625 45.3290625 55.72265625 45.9453125 C56.89507651 48.32609042 56.89507651 48.32609042 58.84765625 51.1328125 C59.50765625 51.1328125 60.16765625 51.1328125 60.84765625 51.1328125 C61.50765625 52.7828125 62.16765625 54.4328125 62.84765625 56.1328125 C63.50765625 56.1328125 64.16765625 56.1328125 64.84765625 56.1328125 C64.97140625 56.9371875 65.09515625 57.7415625 65.22265625 58.5703125 C65.42890625 59.4159375 65.63515625 60.2615625 65.84765625 61.1328125 C66.83765625 61.6278125 66.83765625 61.6278125 67.84765625 62.1328125 C68.22342769 64.12527503 68.54872472 66.12738211 68.84765625 68.1328125 C69.46123123 70.22587347 70.10845568 72.30929982 70.78515625 74.3828125 C71.4750957 76.63206566 72.16274974 78.88202168 72.84765625 81.1328125 C73.10417969 81.92429687 73.36070312 82.71578125 73.625 83.53125 C77.6660962 98.58631428 72.36091617 118.47917617 65.2734375 131.8203125 C63.25547156 135.09328739 60.94864917 138.06985045 58.49609375 141.02734375 C56.77083291 143.12109654 56.77083291 143.12109654 55.44140625 145.63671875 C53.61089621 148.5036205 51.65516321 150.17866577 48.97265625 152.2578125 C48.12960937 152.92039063 47.2865625 153.58296875 46.41796875 154.265625 C43.95743428 156.05306494 41.48085832 157.61381161 38.84765625 159.1328125 C37.37232422 160.00099609 37.37232422 160.00099609 35.8671875 160.88671875 C29.15394736 164.6726264 23.44777868 167.06678873 15.84765625 168.1328125 C14.13613809 168.49299767 12.42754278 168.86744128 10.72265625 169.2578125 C8.80453125 169.6909375 8.80453125 169.6909375 6.84765625 170.1328125 C6.84765625 172.7728125 6.84765625 175.4128125 6.84765625 178.1328125 C24.07400462 178.65947793 43.20623146 169.660242 55.84765625 158.1328125 C56.55213067 156.8190629 57.22733528 155.48832868 57.84765625 154.1328125 C59.97265625 152.8828125 59.97265625 152.8828125 61.84765625 152.1328125 C61.84765625 151.4728125 61.84765625 150.8128125 61.84765625 150.1328125 C62.50765625 150.1328125 63.16765625 150.1328125 63.84765625 150.1328125 C80.46233803 131.10702915 84.19688269 107.36476476 82.84765625 83.1328125 C81.16785413 67.62600536 73.36516812 52.48504754 62.84765625 41.1328125 C62.39922363 40.64876953 61.95079102 40.16472656 61.48876953 39.66601562 C55.70541092 32.66753582 55.70541092 32.66753582 47.84765625 29.1328125 C47.84765625 28.4728125 47.84765625 27.8128125 47.84765625 27.1328125 C35.02068995 19.91326316 22.78766204 14.31411528 7.84765625 13.1328125 Z M6.84765625 35.1328125 C6.84765625 42.3928125 6.84765625 49.6528125 6.84765625 57.1328125 C12.29637375 59.18882898 12.29637375 59.18882898 17.78515625 61.1328125 C18.46578125 61.4628125 19.14640625 61.7928125 19.84765625 62.1328125 C20.17765625 63.1228125 20.50765625 64.1128125 20.84765625 65.1328125 C21.50765625 65.1328125 22.16765625 65.1328125 22.84765625 65.1328125 C23.15703125 65.9165625 23.46640625 66.7003125 23.78515625 67.5078125 C24.77640663 70.05611378 24.77640663 70.05611378 25.84765625 72.1328125 C26.22265625 75.0703125 26.22265625 75.0703125 25.84765625 78.1328125 C23.59765625 80.0703125 23.59765625 80.0703125 20.84765625 81.1328125 C18.83984375 80.94921875 18.83984375 80.94921875 16.84765625 80.1328125 C15.43359375 78.3203125 15.43359375 78.3203125 14.22265625 76.1328125 C12.08777715 72.32538481 11.06178587 71.53752237 6.84765625 70.1328125 C6.84765625 76.7328125 6.84765625 83.3328125 6.84765625 90.1328125 C9.03390625 91.1021875 11.22015625 92.0715625 13.47265625 93.0703125 C19.87322501 96.11295283 23.9470746 99.45530326 26.84765625 106.1328125 C28.6153556 112.01402606 28.30502482 117.57424314 25.9375 123.21484375 C21.77276843 130.54417422 14.4753614 132.68441331 6.84765625 135.1328125 C6.84765625 142.3928125 6.84765625 149.6528125 6.84765625 157.1328125 C18.84763991 155.56138607 30.47247348 152.20588655 39.84765625 144.1328125 C39.84765625 143.4728125 39.84765625 142.8128125 39.84765625 142.1328125 C40.80671875 141.730625 40.80671875 141.730625 41.78515625 141.3203125 C44.17897311 140.24613498 44.17897311 140.24613498 44.84765625 137.1328125 C46.17932432 136.46282565 47.51285126 135.79652769 48.84765625 135.1328125 C60.32514798 122.04083984 62.71470176 104.96191956 62.00439453 88.27148438 C61.07081333 75.53289975 54.58430812 62.86258258 46.2578125 53.30859375 C44.89764545 51.91934795 44.89764545 51.91934795 42.84765625 52.1328125 C42.84765625 51.4728125 42.84765625 50.8128125 42.84765625 50.1328125 C42.22890625 50.0503125 41.61015625 49.9678125 40.97265625 49.8828125 C39.92078125 49.5115625 39.92078125 49.5115625 38.84765625 49.1328125 C38.63238281 48.54242188 38.41710937 47.95203125 38.1953125 47.34375 C36.07138595 43.85927919 32.76831395 42.71916593 29.16015625 41.0078125 C28.46470703 40.66105469 27.76925781 40.31429687 27.05273438 39.95703125 C20.15375266 36.59450235 14.67622356 35.1328125 6.84765625 35.1328125 Z M6.84765625 104.1328125 C6.84765625 110.0728125 6.84765625 116.0128125 6.84765625 122.1328125 C13.6959152 119.95221417 13.6959152 119.95221417 15.84765625 116.1328125 C16.34083026 112.35181175 16.13796034 110.61665265 14.16015625 107.3203125 C11.75050884 104.65285133 11.75050884 104.65285133 6.84765625 104.1328125 Z " fill="#010101" transform="translate(230.15234375,12.8671875)"/>
<path d="M0 0 C1.19689453 -0.06380859 1.19689453 -0.06380859 2.41796875 -0.12890625 C3.10761719 -0.16628906 3.79726562 -0.20367187 4.5078125 -0.2421875 C7.53089486 0.41031938 8.58639561 1.76596909 10.48046875 4.18359375 C10.87367221 6.79185269 11.02173342 8.97906507 10.98840332 11.58508301 C10.99464328 12.33296853 11.00088325 13.08085404 11.0073123 13.85140276 C11.02327483 16.3589376 11.01062591 18.86550473 10.99804688 21.37304688 C11.00346657 23.17008532 11.01058836 24.96711933 11.01928711 26.7641449 C11.03754163 31.64636286 11.03044415 36.52824319 11.01777077 41.41046715 C11.00765413 46.51620784 11.01703273 51.62191933 11.02331543 56.72766113 C11.03059573 65.30238036 11.02099408 73.87696184 11.00195312 82.45166016 C10.98018367 92.36970638 10.98723477 102.28742372 11.00925875 112.20546198 C11.02740183 120.71596676 11.02997641 129.22637245 11.01950407 137.73689032 C11.01326314 142.82200863 11.01244998 147.90697227 11.02565002 152.99208069 C11.03719202 157.77250145 11.02921305 162.55249757 11.006073 167.33287239 C11.00077706 169.0888759 11.00231477 170.84491506 11.01112366 172.60090446 C11.02202824 174.99512271 11.00837869 177.38797377 10.98840332 179.78210449 C10.99732621 180.47976819 11.00624909 181.17743188 11.01544237 181.8962369 C10.96161306 185.21423753 10.68251122 186.92065661 8.63622284 189.58368683 C4.1098917 192.94293293 -0.00335651 191.9605157 -5.26953125 191.30859375 C-6.44902344 191.17130859 -6.44902344 191.17130859 -7.65234375 191.03125 C-12.28560879 190.4848018 -16.90390562 189.86236223 -21.51953125 189.18359375 C-21.51953125 188.52359375 -21.51953125 187.86359375 -21.51953125 187.18359375 C-22.32390625 187.08046875 -23.12828125 186.97734375 -23.95703125 186.87109375 C-32.79198796 185.1661021 -39.40751731 181.63986912 -46.890625 176.77734375 C-49.48413802 175.07239409 -49.48413802 175.07239409 -52.51953125 174.18359375 C-52.51953125 173.52359375 -52.51953125 172.86359375 -52.51953125 172.18359375 C-53.39931641 171.77947266 -53.39931641 171.77947266 -54.296875 171.3671875 C-56.51662404 170.18514188 -58.19792493 168.90258991 -60.08203125 167.24609375 C-60.66082031 166.74207031 -61.23960937 166.23804688 -61.8359375 165.71875 C-64.25734676 163.51082926 -66.4150414 161.31504873 -68.45703125 158.74609375 C-70.37461669 156.21007315 -70.37461669 156.21007315 -72.45703125 154.49609375 C-75.04608093 151.59321987 -76.49135595 148.52851976 -78.16015625 145.03125 C-79.59407455 142.02743839 -81.11837531 139.07896529 -82.64453125 136.12109375 C-93.25543252 114.65505053 -94.75790184 87.67564545 -87.453125 64.8515625 C-86.27458856 62.19499357 -84.95769878 59.70820306 -83.51953125 57.18359375 C-83.00390625 56.16523437 -82.48828125 55.146875 -81.95703125 54.09765625 C-68.07182351 27.03435784 -68.07182351 27.03435784 -56.51953125 23.18359375 C-56.51953125 22.52359375 -56.51953125 21.86359375 -56.51953125 21.18359375 C-55.05859375 19.89453125 -55.05859375 19.89453125 -53.14453125 18.55859375 C-52.51804688 18.11257812 -51.8915625 17.6665625 -51.24609375 17.20703125 C-49.51953125 16.18359375 -49.51953125 16.18359375 -47.51953125 16.18359375 C-47.18953125 15.52359375 -46.85953125 14.86359375 -46.51953125 14.18359375 C-45.52953125 13.85359375 -44.53953125 13.52359375 -43.51953125 13.18359375 C-42.85953125 12.52359375 -42.19953125 11.86359375 -41.51953125 11.18359375 C-28.47721029 4.37082961 -14.51054379 1.05735745 0 0 Z M-53.5234375 36.0703125 C-55.58671365 38.04741647 -55.58671365 38.04741647 -56.609375 40.390625 C-57.51953125 42.18359375 -57.51953125 42.18359375 -60.51953125 43.18359375 C-62.11225569 45.34535786 -63.55006373 47.46878588 -64.95703125 49.74609375 C-65.35881592 50.38869141 -65.76060059 51.03128906 -66.17456055 51.69335938 C-67.3032719 53.51551082 -68.41542631 55.34645309 -69.51953125 57.18359375 C-69.96039063 57.91449219 -70.40125 58.64539063 -70.85546875 59.3984375 C-80.61786159 77.24409161 -80.99989273 100.73666802 -75.84375 120.02734375 C-71.96490971 132.93097232 -64.40937319 145.03548995 -54.51953125 154.18359375 C-53.64554688 155.10398438 -53.64554688 155.10398438 -52.75390625 156.04296875 C-41.33102522 168.00551345 -23.94890571 177.1020052 -7.2265625 178.35546875 C-5.65655648 178.36800373 -4.08595057 178.29039507 -2.51953125 178.18359375 C-2.51953125 175.54359375 -2.51953125 172.90359375 -2.51953125 170.18359375 C-4.2984375 169.78140625 -4.2984375 169.78140625 -6.11328125 169.37109375 C-19.53439989 166.18096493 -31.65849528 161.9230295 -42.51953125 153.18359375 C-43.17953125 153.18359375 -43.83953125 153.18359375 -44.51953125 153.18359375 C-44.51953125 152.52359375 -44.51953125 151.86359375 -44.51953125 151.18359375 C-45.60234375 150.33861328 -45.60234375 150.33861328 -46.70703125 149.4765625 C-49.98313851 146.80562506 -52.12822991 143.94612148 -54.51953125 140.49609375 C-54.95523438 139.87468506 -55.3909375 139.25327637 -55.83984375 138.61303711 C-66.4909741 123.24423731 -72.13832478 104.06857538 -68.83984375 85.3203125 C-68.32894485 82.74304902 -67.76328119 80.19105876 -67.17578125 77.62890625 C-66.55695541 74.38007056 -66.39857914 71.47953876 -66.51953125 68.18359375 C-65.85953125 68.18359375 -65.19953125 68.18359375 -64.51953125 68.18359375 C-64.26945312 67.48234375 -64.019375 66.78109375 -63.76171875 66.05859375 C-62.36280612 62.82085886 -60.61930908 60.10477455 -58.64453125 57.18359375 C-57.96648437 56.17296875 -57.2884375 55.16234375 -56.58984375 54.12109375 C-54.51953125 51.18359375 -54.51953125 51.18359375 -52.26171875 48.43359375 C-50.31545506 46.39430828 -50.31545506 46.39430828 -50.51953125 44.18359375 C-49.85953125 43.85359375 -49.19953125 43.52359375 -48.51953125 43.18359375 C-46.45890488 41.7251726 -44.42204478 40.24908812 -42.39453125 38.74609375 C-41.83121094 38.33810547 -41.26789063 37.93011719 -40.6875 37.50976562 C-39.26013099 36.45047119 -37.88504041 35.32151805 -36.51953125 34.18359375 C-36.51953125 33.52359375 -36.51953125 32.86359375 -36.51953125 32.18359375 C-35.61203125 31.95671875 -34.70453125 31.72984375 -33.76953125 31.49609375 C-30.36076929 30.5416404 -27.24705411 29.19411752 -24.01953125 27.74609375 C-17.02158097 24.74443488 -9.9988955 23.44037217 -2.51953125 22.18359375 C-2.51953125 19.21359375 -2.51953125 16.24359375 -2.51953125 13.18359375 C-21.54346364 13.18359375 -39.87391444 23.77482212 -53.5234375 36.0703125 Z M-42.51953125 54.18359375 C-54.68963209 68.14075401 -58.43347601 84.08855103 -57.67626953 102.03320312 C-56.70426808 115.36869971 -49.99471996 129.66534513 -40.76953125 139.30859375 C-38.57773392 141.36663694 -38.57773392 141.36663694 -35.51953125 142.18359375 C-35.02453125 143.17359375 -35.02453125 143.17359375 -34.51953125 144.18359375 C-24.96074498 152.29222228 -14.8611319 155.81230479 -2.51953125 157.18359375 C-2.51953125 149.92359375 -2.51953125 142.66359375 -2.51953125 135.18359375 C-4.23140625 134.44109375 -5.94328125 133.69859375 -7.70703125 132.93359375 C-15.37575177 129.40401597 -19.52536233 126.14333983 -22.51953125 118.18359375 C-23.39453125 114.30859375 -23.39453125 114.30859375 -23.51953125 111.18359375 C-20.51335856 108.17742106 -17.69571527 108.58774059 -13.51953125 108.18359375 C-13.27203125 109.23546875 -13.02453125 110.28734375 -12.76953125 111.37109375 C-11.71030244 115.0302478 -10.24826071 117.45486429 -7.51953125 120.18359375 C-5.86953125 120.84359375 -4.21953125 121.50359375 -2.51953125 122.18359375 C-2.51953125 114.92359375 -2.51953125 107.66359375 -2.51953125 100.18359375 C-5.81953125 98.86359375 -9.11953125 97.54359375 -12.51953125 96.18359375 C-17.01953125 93.93359375 -17.01953125 93.93359375 -18.51953125 90.18359375 C-18.86113281 89.43464844 -19.20273438 88.68570313 -19.5546875 87.9140625 C-21.61975707 82.06999922 -21.57001421 74.84101537 -19.08203125 69.12109375 C-18.56640625 68.15171875 -18.05078125 67.18234375 -17.51953125 66.18359375 C-17.02453125 64.69859375 -17.02453125 64.69859375 -16.51953125 63.18359375 C-14.51953125 62.24609375 -14.51953125 62.24609375 -11.51953125 61.18359375 C-8.54953125 59.86359375 -5.57953125 58.54359375 -2.51953125 57.18359375 C-2.51953125 49.59359375 -2.51953125 42.00359375 -2.51953125 34.18359375 C-17.77668951 34.18359375 -32.05328035 44.09220857 -42.51953125 54.18359375 Z M-6.51953125 72.18359375 C-6.51953125 72.84359375 -6.51953125 73.50359375 -6.51953125 74.18359375 C-7.17953125 74.18359375 -7.83953125 74.18359375 -8.51953125 74.18359375 C-9.45739207 79.2336897 -9.45739207 79.2336897 -8.51953125 84.18359375 C-6.63582654 85.50056045 -6.63582654 85.50056045 -4.51953125 86.18359375 C-3.85953125 85.85359375 -3.19953125 85.52359375 -2.51953125 85.18359375 C-2.51953125 80.23359375 -2.51953125 75.28359375 -2.51953125 70.18359375 C-3.98178141 70.09114372 -3.98178141 70.09114372 -6.51953125 72.18359375 Z " fill="#010101" transform="translate(205.51953125,12.81640625)"/>
<path d="M0 0 C7.25806452 2.09677419 7.25806452 2.09677419 9 5 C9.42149892 7.85097188 9.27928209 10.06753805 9 13 C5.81237635 15.12508244 3.73487777 15.5020163 0 16 C0 15.34 0 14.68 0 14 C-2.475 13.01 -2.475 13.01 -5 12 C-4.64766839 6.5388601 -4.64766839 6.5388601 -4 4 C-1.9375 2.5 -1.9375 2.5 0 2 C0 1.34 0 0.68 0 0 Z " fill="#010101" transform="translate(33,236)"/>
<path d="M0 0 C2 1 2 1 2 1 Z " fill="#000000" transform="translate(75,331)"/>
<path d="" fill="#000000" transform="translate(0,0)"/>
<path d="M0 0 C2 1 2 1 2 1 Z " fill="#000000" transform="translate(229,244)"/>
<path d="M0 0 C2 1 2 1 2 1 Z " fill="#000000" transform="translate(165,236)"/>
<path d="" fill="#000000" transform="translate(0,0)"/>
<path d="" fill="#7F7F7F" transform="translate(0,0)"/>
<path d="M0 0 C2 1 2 1 2 1 Z " fill="#000000" transform="translate(248,35)"/>
<path d="" fill="#FFFFFF" transform="translate(0,0)"/>
<path d="" fill="#FFFFFF" transform="translate(0,0)"/>
<path d="" fill="#FFFFFF" transform="translate(0,0)"/>
<path d="" fill="#FFFFFF" transform="translate(0,0)"/>
<path d="" fill="#FFFFFF" transform="translate(0,0)"/>
<path d="" fill="#FFFFFF" transform="translate(0,0)"/>
<path d="" fill="#FFFFFF" transform="translate(0,0)"/>
<path d="" fill="#000000" transform="translate(0,0)"/>
<path d="" fill="#000000" transform="translate(0,0)"/>
<path d="" fill="#FFFFFF" transform="translate(0,0)"/>
<path d="" fill="#000000" transform="translate(0,0)"/>
<path d="" fill="#FFFFFF" transform="translate(0,0)"/>
<path d="" fill="#FFFFFF" transform="translate(0,0)"/>
<path d="" fill="#000000" transform="translate(0,0)"/>
<path d="" fill="#FFFFFF" transform="translate(0,0)"/>
<path d="" fill="#000000" transform="translate(0,0)"/>
<path d="" fill="#FFFFFF" transform="translate(0,0)"/>
<path d="" fill="#000000" transform="translate(0,0)"/>
<path d="" fill="#000000" transform="translate(0,0)"/>
<path d="" fill="#FFFFFF" transform="translate(0,0)"/>
<path d="" fill="#000000" transform="translate(0,0)"/>
<path d="" fill="#000000" transform="translate(0,0)"/>
<path d="" fill="#000000" transform="translate(0,0)"/>
<path d="" fill="#000000" transform="translate(0,0)"/>
<path d="" fill="#000000" transform="translate(0,0)"/>
<path d="" fill="#000000" transform="translate(0,0)"/>
<path d="" fill="#000000" transform="translate(0,0)"/>
<path d="" fill="#000000" transform="translate(0,0)"/>
<path d="" fill="#000000" transform="translate(0,0)"/>
<path d="" fill="#FFFFFF" transform="translate(0,0)"/>
<path d="" fill="#000000" transform="translate(0,0)"/>
<path d="" fill="#000000" transform="translate(0,0)"/>
<path d="" fill="#000000" transform="translate(0,0)"/>
<path d="" fill="#000000" transform="translate(0,0)"/>
<path d="" fill="#FFFFFF" transform="translate(0,0)"/>
<path d="" fill="#000000" transform="translate(0,0)"/>
<path d="" fill="#FFFFFF" transform="translate(0,0)"/>
<path d="" fill="#000000" transform="translate(0,0)"/>
<path d="" fill="#FFFFFF" transform="translate(0,0)"/>
<path d="" fill="#000000" transform="translate(0,0)"/>
<path d="" fill="#000000" transform="translate(0,0)"/>
<path d="" fill="#000000" transform="translate(0,0)"/>
<path d="" fill="#000000" transform="translate(0,0)"/>
<path d="" fill="#000000" transform="translate(0,0)"/>
<path d="" fill="#FFFFFF" transform="translate(0,0)"/>
<path d="" fill="#FFFFFF" transform="translate(0,0)"/>
<path d="" fill="#FFFFFF" transform="translate(0,0)"/>
<path d="" fill="#FFFFFF" transform="translate(0,0)"/>
<path d="" fill="#000000" transform="translate(0,0)"/>
<path d="" fill="#000000" transform="translate(0,0)"/>
<path d="" fill="#000000" transform="translate(0,0)"/>
<path d="" fill="#000000" transform="translate(0,0)"/>
<path d="" fill="#000000" transform="translate(0,0)"/>
<path d="" fill="#FFFFFF" transform="translate(0,0)"/>
<path d="" fill="#000000" transform="translate(0,0)"/>
<path d="" fill="#FFFFFF" transform="translate(0,0)"/>
<path d="" fill="#000000" transform="translate(0,0)"/>
<path d="" fill="#000000" transform="translate(0,0)"/>
<path d="" fill="#000000" transform="translate(0,0)"/>
<path d="" fill="#000000" transform="translate(0,0)"/>
<path d="" fill="#000000" transform="translate(0,0)"/>
<path d="" fill="#000000" transform="translate(0,0)"/>
<path d="" fill="#000000" transform="translate(0,0)"/>
<path d="" fill="#FFFFFF" transform="translate(0,0)"/>
<path d="" fill="#000000" transform="translate(0,0)"/>
<path d="" fill="#000000" transform="translate(0,0)"/>
<path d="" fill="#000000" transform="translate(0,0)"/>
<path d="" fill="#000000" transform="translate(0,0)"/>
<path d="" fill="#000000" transform="translate(0,0)"/>
<path d="" fill="#000000" transform="translate(0,0)"/>
<path d="" fill="#000000" transform="translate(0,0)"/>
<path d="" fill="#000000" transform="translate(0,0)"/>
<path d="" fill="#000000" transform="translate(0,0)"/>
<path d="" fill="#000000" transform="translate(0,0)"/>
<path d="" fill="#000000" transform="translate(0,0)"/>
<path d="" fill="#000000" transform="translate(0,0)"/>
<path d="" fill="#000000" transform="translate(0,0)"/>
<path d="" fill="#000000" transform="translate(0,0)"/>
<path d="" fill="#000000" transform="translate(0,0)"/>
<path d="" fill="#000000" transform="translate(0,0)"/>
<path d="" fill="#000000" transform="translate(0,0)"/>
<path d="" fill="#000000" transform="translate(0,0)"/>
<path d="" fill="#000000" transform="translate(0,0)"/>
<path d="" fill="#000000" transform="translate(0,0)"/>
<path d="" fill="#000000" transform="translate(0,0)"/>
<path d="" fill="#FFFFFF" transform="translate(0,0)"/>
<path d="" fill="#000000" transform="translate(0,0)"/>
<path d="" fill="#000000" transform="translate(0,0)"/>
<path d="" fill="#000000" transform="translate(0,0)"/>
<path d="" fill="#000000" transform="translate(0,0)"/>
<path d="" fill="#000000" transform="translate(0,0)"/>
<path d="" fill="#000000" transform="translate(0,0)"/>
<path d="" fill="#FFFFFF" transform="translate(0,0)"/>
<path d="" fill="#000000" transform="translate(0,0)"/>
<path d="" fill="#000000" transform="translate(0,0)"/>
<path d="" fill="#000000" transform="translate(0,0)"/>
<path d="" fill="#000000" transform="translate(0,0)"/>
<path d="" fill="#000000" transform="translate(0,0)"/>
<path d="" fill="#000000" transform="translate(0,0)"/>
<path d="" fill="#000000" transform="translate(0,0)"/>
<path d="" fill="#000000" transform="translate(0,0)"/>
<path d="" fill="#FFFFFF" transform="translate(0,0)"/>
<path d="" fill="#FFFFFF" transform="translate(0,0)"/>
<path d="" fill="#000000" transform="translate(0,0)"/>
<path d="" fill="#000000" transform="translate(0,0)"/>
<path d="" fill="#000000" transform="translate(0,0)"/>
<path d="" fill="#FFFFFF" transform="translate(0,0)"/>
<path d="" fill="#FFFFFF" transform="translate(0,0)"/>
<path d="" fill="#FFFFFF" transform="translate(0,0)"/>
<path d="" fill="#FFFFFF" transform="translate(0,0)"/>
<path d="" fill="#000000" transform="translate(0,0)"/>
<path d="" fill="#000000" transform="translate(0,0)"/>
<path d="" fill="#000000" transform="translate(0,0)"/>
<path d="" fill="#000000" transform="translate(0,0)"/>
<path d="" fill="#FFFFFF" transform="translate(0,0)"/>
<path d="" fill="#000000" transform="translate(0,0)"/>
<path d="" fill="#FFFFFF" transform="translate(0,0)"/>
<path d="" fill="#FFFFFF" transform="translate(0,0)"/>
<path d="" fill="#FFFFFF" transform="translate(0,0)"/>
<path d="" fill="#000000" transform="translate(0,0)"/>
<path d="" fill="#000000" transform="translate(0,0)"/>
<path d="" fill="#FFFFFF" transform="translate(0,0)"/>
<path d="" fill="#000000" transform="translate(0,0)"/>
<path d="" fill="#000000" transform="translate(0,0)"/>
<path d="" fill="#000000" transform="translate(0,0)"/>
<path d="" fill="#FFFFFF" transform="translate(0,0)"/>
<path d="" fill="#FFFFFF" transform="translate(0,0)"/>
<path d="" fill="#000000" transform="translate(0,0)"/>
<path d="" fill="#000000" transform="translate(0,0)"/>
<path d="" fill="#000000" transform="translate(0,0)"/>
<path d="" fill="#000000" transform="translate(0,0)"/>
<path d="" fill="#FFFFFF" transform="translate(0,0)"/>
<path d="" fill="#FFFFFF" transform="translate(0,0)"/>
<path d="" fill="#000000" transform="translate(0,0)"/>
<path d="" fill="#000000" transform="translate(0,0)"/>
<path d="" fill="#000000" transform="translate(0,0)"/>
<path d="" fill="#000000" transform="translate(0,0)"/>
<path d="" fill="#000000" transform="translate(0,0)"/>
<path d="" fill="#000000" transform="translate(0,0)"/>
<path d="" fill="#000000" transform="translate(0,0)"/>
<path d="" fill="#000000" transform="translate(0,0)"/>
<path d="" fill="#000000" transform="translate(0,0)"/>
<path d="" fill="#000000" transform="translate(0,0)"/>
<path d="" fill="#000000" transform="translate(0,0)"/>
<path d="" fill="#000000" transform="translate(0,0)"/>
<path d="" fill="#000000" transform="translate(0,0)"/>
<path d="" fill="#000000" transform="translate(0,0)"/>
<path d="" fill="#FFFFFF" transform="translate(0,0)"/>
<path d="" fill="#000000" transform="translate(0,0)"/>
<path d="" fill="#000000" transform="translate(0,0)"/>
<path d="" fill="#000000" transform="translate(0,0)"/>
<path d="" fill="#000000" transform="translate(0,0)"/>
<path d="" fill="#000000" transform="translate(0,0)"/>
<path d="" fill="#000000" transform="translate(0,0)"/>
<path d="" fill="#FFFFFF" transform="translate(0,0)"/>
<path d="" fill="#000000" transform="translate(0,0)"/>
<path d="" fill="#000000" transform="translate(0,0)"/>
<path d="" fill="#FFFFFF" transform="translate(0,0)"/>
<path d="" fill="#FFFFFF" transform="translate(0,0)"/>
<path d="" fill="#000000" transform="translate(0,0)"/>
<path d="" fill="#FFFFFF" transform="translate(0,0)"/>
<path d="" fill="#000000" transform="translate(0,0)"/>
<path d="" fill="#FFFFFF" transform="translate(0,0)"/>
<path d="" fill="#FFFFFF" transform="translate(0,0)"/>
<path d="" fill="#FFFFFF" transform="translate(0,0)"/>
<path d="" fill="#FFFFFF" transform="translate(0,0)"/>
<path d="" fill="#000000" transform="translate(0,0)"/>
<path d="" fill="#FFFFFF" transform="translate(0,0)"/>
<path d="" fill="#FFFFFF" transform="translate(0,0)"/>
<path d="" fill="#FFFFFF" transform="translate(0,0)"/>
<path d="" fill="#FFFFFF" transform="translate(0,0)"/>
<path d="" fill="#000000" transform="translate(0,0)"/>
<path d="" fill="#FFFFFF" transform="translate(0,0)"/>
<path d="" fill="#000000" transform="translate(0,0)"/>
<path d="" fill="#000000" transform="translate(0,0)"/>
<path d="" fill="#000000" transform="translate(0,0)"/>
<path d="" fill="#FFFFFF" transform="translate(0,0)"/>
<path d="" fill="#FFFFFF" transform="translate(0,0)"/>
<path d="" fill="#000000" transform="translate(0,0)"/>
<path d="" fill="#000000" transform="translate(0,0)"/>
<path d="" fill="#FFFFFF" transform="translate(0,0)"/>
<path d="" fill="#FFFFFF" transform="translate(0,0)"/>
<path d="" fill="#000000" transform="translate(0,0)"/>
<path d="" fill="#000000" transform="translate(0,0)"/>
<path d="" fill="#000000" transform="translate(0,0)"/>
<path d="" fill="#000000" transform="translate(0,0)"/>
<path d="" fill="#000000" transform="translate(0,0)"/>
<path d="" fill="#000000" transform="translate(0,0)"/>
<path d="" fill="#000000" transform="translate(0,0)"/>
<path d="" fill="#000000" transform="translate(0,0)"/>
<path d="" fill="#000000" transform="translate(0,0)"/>
<path d="" fill="#FFFFFF" transform="translate(0,0)"/>
<path d="" fill="#000000" transform="translate(0,0)"/>
<path d="" fill="#000000" transform="translate(0,0)"/>
<path d="" fill="#FFFFFF" transform="translate(0,0)"/>
<path d="" fill="#FFFFFF" transform="translate(0,0)"/>
<path d="" fill="#FFFFFF" transform="translate(0,0)"/>
<path d="" fill="#FFFFFF" transform="translate(0,0)"/>
<path d="" fill="#000000" transform="translate(0,0)"/>
<path d="" fill="#000000" transform="translate(0,0)"/>
<path d="" fill="#000000" transform="translate(0,0)"/>
<path d="" fill="#000000" transform="translate(0,0)"/>
<path d="" fill="#000000" transform="translate(0,0)"/>
<path d="" fill="#FFFFFF" transform="translate(0,0)"/>
<path d="" fill="#000000" transform="translate(0,0)"/>
<path d="" fill="#FFFFFF" transform="translate(0,0)"/>
<path d="" fill="#FFFFFF" transform="translate(0,0)"/>
<path d="" fill="#FFFFFF" transform="translate(0,0)"/>
<path d="" fill="#FFFFFF" transform="translate(0,0)"/>
<path d="" fill="#FFFFFF" transform="translate(0,0)"/>
<path d="" fill="#FFFFFF" transform="translate(0,0)"/>
<path d="" fill="#FFFFFF" transform="translate(0,0)"/>
<path d="" fill="#FFFFFF" transform="translate(0,0)"/>
</svg>
