<svg width="45" height="45" viewBox="0 0 45 45" fill="none" xmlns="http://www.w3.org/2000/svg">
<g clip-path="url(#clip0_73_4430)">
<path d="M41.7375 6.28125C41.5615 6.07544 41.343 5.91021 41.097 5.79692C40.851 5.68363 40.5834 5.62498 40.3125 5.625H23.4375C23.1713 5.62534 22.9082 5.68236 22.6657 5.79228C22.4233 5.9022 22.207 6.0625 22.0313 6.2625C21.8551 6.46313 21.7239 6.69906 21.6463 6.95451C21.5687 7.20997 21.5465 7.47905 21.5813 7.74375L23.4563 21.8063C23.4883 22.0525 23.5685 22.29 23.6923 22.5052C23.8161 22.7205 23.9811 22.9092 24.1778 23.0607C24.3746 23.2122 24.5992 23.3234 24.8389 23.3881C25.0787 23.4527 25.3288 23.4695 25.575 23.4375C25.8213 23.4055 26.0588 23.3253 26.274 23.2015C26.4892 23.0777 26.678 22.9127 26.8295 22.716C26.9809 22.5192 27.0922 22.2946 27.1568 22.0548C27.2215 21.8151 27.2383 21.565 27.2063 21.3188L25.6875 9.9C25.6769 9.83596 25.6816 9.77031 25.7011 9.70841C25.7207 9.64651 25.7546 9.59009 25.8 9.54375C25.8394 9.49597 25.8878 9.45646 25.9425 9.42749C25.9972 9.39853 26.0571 9.38069 26.1188 9.375H37.5C37.5688 9.37116 37.6374 9.38459 37.6996 9.41407C37.7618 9.44354 37.8157 9.48813 37.8563 9.54375C37.9021 9.59375 37.936 9.65344 37.9554 9.71837C37.9749 9.78331 37.9795 9.85181 37.9688 9.91875L35.925 22.2375C35.843 22.7348 35.9618 23.2443 36.2554 23.6539C36.5491 24.0636 36.9934 24.3398 37.4907 24.4219C37.7369 24.4625 37.9887 24.4542 38.2317 24.3975C38.4748 24.3409 38.7043 24.2368 38.9071 24.0915C39.3167 23.7979 39.593 23.3535 39.675 22.8563L42.1875 7.85625C42.2366 7.57678 42.2216 7.28983 42.1436 7.01701C42.0657 6.74419 41.9268 6.49262 41.7375 6.28125Z" fill="black"/>
<path d="M35.625 26.2499H24.375C24.2878 26.2531 24.2016 26.2296 24.128 26.1828C24.0543 26.1359 23.9966 26.0678 23.9625 25.9874L22.1625 22.4999C22.0944 22.3581 21.9918 22.2356 21.864 22.1439C21.7362 22.0522 21.5874 21.994 21.4313 21.9749C21.2737 21.9568 21.114 21.9781 20.9667 22.037C20.8194 22.0959 20.6891 22.1906 20.5875 22.3124L17.0625 26.6437C16.7725 26.951 16.3777 27.1383 15.9563 27.1687H14.0813C13.955 27.1661 13.8295 27.1891 13.7123 27.2363C13.5951 27.2834 13.4887 27.3537 13.3994 27.4431C13.3101 27.5324 13.2397 27.6388 13.1926 27.756C13.1454 27.8731 13.1224 27.9986 13.125 28.1249V39.3749C13.1219 39.521 13.1545 39.6656 13.2198 39.7962C13.2852 39.9269 13.3813 40.0397 13.5 40.1249C17.8125 43.3687 21.15 44.9999 23.4375 44.9999H33.8437C34.6602 45.138 35.4983 44.953 36.1807 44.4841C36.8631 44.0152 37.3363 43.2991 37.5 42.4874C38.4135 38.0575 39.0398 33.5731 39.375 29.0624C39.375 27.6562 38.0812 26.2499 35.625 26.2499ZM9.05625 25.3124H3.28125C3.15693 25.3124 3.0377 25.3618 2.94979 25.4497C2.86189 25.5376 2.8125 25.6568 2.8125 25.7812V42.6562C2.8125 42.7805 2.86189 42.8997 2.94979 42.9876C3.0377 43.0755 3.15693 43.1249 3.28125 43.1249H9.05625C9.21306 43.1433 9.37199 43.1286 9.52271 43.0815C9.67342 43.0345 9.81255 42.9562 9.93105 42.8519C10.0495 42.7476 10.1447 42.6194 10.2105 42.4759C10.2762 42.3323 10.3109 42.1765 10.3125 42.0187V26.4187C10.3109 26.2608 10.2762 26.105 10.2105 25.9614C10.1447 25.8179 10.0495 25.6898 9.93105 25.5854C9.81255 25.4811 9.67342 25.4028 9.52271 25.3558C9.37199 25.3088 9.21306 25.294 9.05625 25.3124ZM29.0625 16.8749C29.0625 17.6208 29.3588 18.3362 29.8863 18.8636C30.4137 19.3911 31.1291 19.6874 31.875 19.6874C32.6209 19.6874 33.3363 19.3911 33.8637 18.8636C34.3912 18.3362 34.6875 17.6208 34.6875 16.8749C34.6875 16.129 34.3912 15.4136 33.8637 14.8862C33.3363 14.3587 32.6209 14.0624 31.875 14.0624C31.1291 14.0624 30.4137 14.3587 29.8863 14.8862C29.3588 15.4136 29.0625 16.129 29.0625 16.8749ZM18.75 20.6249C19.0236 20.6284 19.2947 20.572 19.5442 20.4596C19.7938 20.3472 20.0156 20.1816 20.1943 19.9743C20.373 19.7671 20.5042 19.5232 20.5786 19.2598C20.653 18.9965 20.6688 18.72 20.625 18.4499L18.2437 4.29366C18.1976 4.17292 18.1976 4.0394 18.2437 3.91866C18.301 3.84238 18.3801 3.78537 18.4705 3.75522C18.561 3.72507 18.6585 3.72321 18.75 3.74991H33.75C34.2473 3.74991 34.7242 3.55237 35.0758 3.20074C35.4275 2.84911 35.625 2.37219 35.625 1.87491C35.625 1.37763 35.4275 0.900717 35.0758 0.549087C34.7242 0.197456 34.2473 -8.81919e-05 33.75 -8.81919e-05H15.9375C15.6639 -0.00361742 15.3928 0.0527939 15.1433 0.165185C14.8937 0.277576 14.6719 0.443222 14.4932 0.650494C14.3145 0.857766 14.1833 1.10164 14.1089 1.36499C14.0345 1.62834 14.0187 1.90478 14.0625 2.17491L16.875 19.0499C16.9469 19.4936 17.1757 19.8967 17.5199 20.1858C17.864 20.4748 18.3006 20.6307 18.75 20.6249Z" fill="black"/>
</g>
<defs>
<clipPath id="clip0_73_4430">
<rect width="45" height="45" fill="white"/>
</clipPath>
</defs>
</svg>
