<svg width="45" height="45" viewBox="0 0 45 45" fill="none" xmlns="http://www.w3.org/2000/svg">
<path d="M44.625 5.625C44.625 4.87908 44.3287 4.16371 43.8012 3.63626C43.2738 3.10882 42.5584 2.8125 41.8125 2.8125H15.5625C14.8166 2.8125 14.1012 3.10882 13.5738 3.63626C13.0463 4.16371 12.75 4.87908 12.75 5.625V20.625C12.75 21.3709 13.0463 22.0863 13.5738 22.6137C14.1012 23.1412 14.8166 23.4375 15.5625 23.4375H41.8125C42.5584 23.4375 43.2738 23.1412 43.8012 22.6137C44.3287 22.0863 44.625 21.3709 44.625 20.625V5.625ZM40.875 19.2188C40.875 19.3431 40.8256 19.4623 40.7377 19.5502C40.6498 19.6381 40.5306 19.6875 40.4062 19.6875H16.9688C16.8444 19.6875 16.7252 19.6381 16.6373 19.5502C16.5494 19.4623 16.5 19.3431 16.5 19.2188V7.0875C16.5 6.96318 16.5494 6.84395 16.6373 6.75604C16.7252 6.66814 16.8444 6.61875 16.9688 6.61875H40.4062C40.5306 6.61875 40.6498 6.66814 40.7377 6.75604C40.8256 6.84395 40.875 6.96318 40.875 7.0875V19.2188Z" fill="black"/>
<path d="M24.9375 13.1812C24.9375 14.1757 25.3326 15.1295 26.0358 15.8328C26.7391 16.5361 27.6929 16.9312 28.6875 16.9312C29.682 16.9312 30.6359 16.5361 31.3391 15.8328C32.0424 15.1295 32.4375 14.1757 32.4375 13.1812C32.4375 12.1866 32.0424 11.2328 31.3391 10.5295C30.6359 9.82624 29.682 9.43115 28.6875 9.43115C27.6929 9.43115 26.7391 9.82624 26.0358 10.5295C25.3326 11.2328 24.9375 12.1866 24.9375 13.1812ZM37.875 30.9937L31.2562 33.1874C31.1922 33.2064 31.1335 33.24 31.0847 33.2856C31.0359 33.3311 30.9983 33.3874 30.975 33.4499C30.6737 34.1008 30.1921 34.6517 29.5873 35.0372C28.9824 35.4227 28.2797 35.6267 27.5625 35.6249H20.0625C19.8138 35.6249 19.5754 35.5261 19.3996 35.3503C19.2237 35.1745 19.125 34.936 19.125 34.6874C19.125 34.4388 19.2237 34.2003 19.3996 34.0245C19.5754 33.8487 19.8138 33.7499 20.0625 33.7499H27.5625C28.0598 33.7499 28.5367 33.5524 28.8883 33.2007C29.2399 32.8491 29.4375 32.3722 29.4375 31.8749C29.4375 31.3776 29.2399 30.9007 28.8883 30.5491C28.5367 30.1974 28.0598 29.9999 27.5625 29.9999H21C18.845 28.32 16.2282 27.3387 13.5 27.1874H9.63748C8.46064 27.2321 7.31086 27.5532 6.28123 28.1249L0.656227 30.9562C0.582252 30.9966 0.520565 31.0563 0.477666 31.1289C0.434768 31.2015 0.412247 31.2843 0.412477 31.3687V41.4937C0.414155 41.5776 0.437475 41.6596 0.480178 41.7319C0.522882 41.8042 0.583522 41.8642 0.656227 41.9062C0.727486 41.9473 0.80832 41.969 0.890602 41.969C0.972885 41.969 1.05372 41.9473 1.12498 41.9062L7.16248 38.1562C7.3977 38.0089 7.66267 37.9157 7.93828 37.8833C8.21389 37.8509 8.49326 37.88 8.75623 37.9687C27.5062 44.2687 21.1875 44.2874 42.2625 33.6374C42.435 33.5697 42.5847 33.4542 42.6939 33.3044C42.8031 33.1547 42.8674 32.9769 42.8792 32.7919C42.891 32.607 42.8499 32.4224 42.7606 32.26C42.6713 32.0976 42.5375 31.964 42.375 31.8749C41.765 31.3517 41.0298 30.9955 40.2412 30.841C39.4525 30.6866 38.6373 30.7392 37.875 30.9937Z" fill="black"/>
</svg>
