<svg width="165" height="167" viewBox="0 0 165 167" fill="none" xmlns="http://www.w3.org/2000/svg">
<path d="M82.5 1C127.5 1 164 37.9251 164 83.5C164 129.075 127.5 166 82.5 166C37.5001 166 1 129.075 1 83.5C1 37.9251 37.5001 1 82.5 1Z" stroke="#FFC431" stroke-width="2"/>
<path d="M81.4708 43.8771C81.7097 42.6172 81.6961 41.3224 81.4307 40.0678C81.1654 38.8132 80.6535 37.6238 79.925 36.5685C79.1964 35.5132 78.2656 34.6131 77.1865 33.9203C76.1074 33.2276 74.9014 32.7559 73.6387 32.5328C72.3759 32.3096 71.0814 32.3394 69.8302 32.6204C68.579 32.9014 67.396 33.428 66.3499 34.1697C65.3038 34.9113 64.4154 35.8533 63.7361 36.941C63.0569 38.0287 62.6003 39.2404 62.3929 40.5058L53.4223 91.3911L52.1113 100.078L39.0331 86.6765C37.0791 84.719 34.4554 83.5754 31.6913 83.4762C28.9273 83.377 26.2284 84.3297 24.1391 86.1421C22.0498 87.9545 20.7254 90.4917 20.4332 93.2421C20.141 95.9925 20.9026 98.7513 22.5644 100.962L42.0233 126.912C46.4408 132.802 48.6496 135.74 51.304 138.033C55.3603 141.524 60.2205 143.952 65.4477 145.099C68.8706 145.854 72.5519 145.854 79.9144 145.854H95.0269C102.56 145.853 109.855 143.219 115.651 138.407C121.446 133.595 125.377 126.908 126.763 119.504L133.674 82.5883L136.476 66.6879C136.923 64.1572 136.345 61.5528 134.871 59.4478C133.397 57.3428 131.147 55.9095 128.617 55.4633C126.086 55.0171 123.482 55.5945 121.377 57.0685C119.272 58.5425 117.838 60.7924 117.392 63.3231M117.392 63.3231L119.64 50.6002C120.086 48.0695 119.508 45.4651 118.034 43.3601C116.56 41.2551 114.311 39.8218 111.78 39.3756C109.249 38.9294 106.645 39.5068 104.54 40.9808C102.435 42.4548 101.001 44.7111 100.555 47.2419M117.392 63.3231L114.589 79.2235M100.555 47.2419L102.796 34.519C103.035 33.2591 103.021 31.9643 102.756 30.7097C102.491 29.4551 101.979 28.2657 101.25 27.2104C100.522 26.1551 99.591 25.255 98.5119 24.5622C97.4328 23.8694 96.2269 23.3978 94.9641 23.1747C93.7013 22.9515 92.4068 22.9813 91.1556 23.2623C89.9044 23.5433 88.7215 24.0699 87.6754 24.8115C86.6292 25.5532 85.7408 26.4952 85.0615 27.5829C84.3823 28.6705 83.9257 29.8822 83.7183 31.1477L81.4773 43.8706L76.4269 72.494M100.555 47.2419L95.5113 75.8588" stroke="#F7DA31" stroke-width="4" stroke-linecap="round" stroke-linejoin="round"/>
</svg>
